<svg width="58" height="68" viewBox="0 0 58 68" fill="none" xmlns="http://www.w3.org/2000/svg">
<path d="M46.547 68C45.907 68 45.491 67.68 45.299 67.04L42.131 56.768C42.003 56.512 41.843 56.384 41.651 56.384H16.307C16.115 56.384 15.955 56.512 15.827 56.768L12.659 67.04C12.467 67.68 12.051 68 11.411 68H1.811C1.427 68 1.139 67.904 0.947 67.712C0.755 67.456 0.723 67.104 0.851 66.656L21.683 1.75999C21.875 1.12 22.291 0.799995 22.931 0.799995H34.931C35.571 0.799995 35.987 1.12 36.179 1.75999L57.107 66.656C57.171 66.784 57.203 66.944 57.203 67.136C57.203 67.712 56.851 68 56.147 68H46.547ZM18.803 47.072C18.739 47.456 18.867 47.648 19.187 47.648H38.675C39.059 47.648 39.187 47.456 39.059 47.072L29.171 14.912C29.107 14.656 29.011 14.528 28.883 14.528C28.755 14.528 28.659 14.656 28.595 14.912L18.803 47.072Z" fill="black"/>
</svg>
