<svg width="37" height="37" viewBox="0 0 37 37" fill="none" xmlns="http://www.w3.org/2000/svg">
<g clip-path="url(#clip0_31_51)">
<path d="M25.9131 0.150874C25.8354 0.0640001 23.0348 0.185166 20.5978 2.83023C18.1608 5.47302 18.5357 8.50445 18.5906 8.58217C18.6454 8.6599 22.0655 8.78107 24.2488 5.7062C26.4321 2.63134 25.9908 0.240033 25.9131 0.150874ZM33.4894 26.9742C33.3797 26.7547 28.1741 24.1531 28.6588 19.151C29.1434 14.1466 32.4881 12.775 32.5406 12.6264C32.5932 12.4778 31.1758 10.8203 29.6738 9.98129C28.571 9.38976 27.3505 9.05085 26.1006 8.98911C25.8537 8.98225 24.9964 8.77192 23.2337 9.2543C22.0724 9.57207 19.4547 10.6008 18.7346 10.642C18.0122 10.6831 15.8632 9.44862 13.5519 9.1217C12.0728 8.83594 10.5045 9.42119 9.38198 9.87156C8.26177 10.3196 6.13108 11.5953 4.64052 14.9857C3.14995 18.3737 3.92952 23.7416 4.48734 25.4105C5.04516 27.0771 5.91618 29.809 7.39761 31.8025C8.71443 34.0521 10.461 35.6135 11.1903 36.1439C11.9196 36.6743 13.9771 37.0264 15.4037 36.2971C16.5513 35.593 18.6226 35.1883 19.441 35.218C20.2572 35.2478 21.8666 35.5701 23.5149 36.4503C24.8203 36.9006 26.0548 36.7132 27.2916 36.2102C28.5284 35.705 30.3185 33.7892 32.408 29.905C33.2013 28.099 33.5625 27.1228 33.4894 26.9742Z" fill="black"/>
<path d="M25.9131 0.150874C25.8354 0.0640001 23.0348 0.185166 20.5978 2.83023C18.1608 5.47302 18.5357 8.50445 18.5906 8.58217C18.6454 8.6599 22.0655 8.78107 24.2488 5.7062C26.4321 2.63134 25.9908 0.240033 25.9131 0.150874ZM33.4894 26.9742C33.3797 26.7547 28.1741 24.1531 28.6588 19.151C29.1434 14.1466 32.4881 12.775 32.5406 12.6264C32.5932 12.4778 31.1758 10.8203 29.6738 9.98129C28.571 9.38976 27.3505 9.05085 26.1006 8.98911C25.8537 8.98225 24.9964 8.77192 23.2337 9.2543C22.0724 9.57207 19.4547 10.6008 18.7346 10.642C18.0122 10.6831 15.8632 9.44862 13.5519 9.1217C12.0728 8.83594 10.5045 9.42119 9.38198 9.87156C8.26177 10.3196 6.13108 11.5953 4.64052 14.9857C3.14995 18.3737 3.92952 23.7416 4.48734 25.4105C5.04516 27.0771 5.91618 29.809 7.39761 31.8025C8.71443 34.0521 10.461 35.6135 11.1903 36.1439C11.9196 36.6743 13.9771 37.0264 15.4037 36.2971C16.5513 35.593 18.6226 35.1883 19.441 35.218C20.2572 35.2478 21.8666 35.5701 23.5149 36.4503C24.8203 36.9006 26.0548 36.7132 27.2916 36.2102C28.5284 35.705 30.3185 33.7892 32.408 29.905C33.2013 28.099 33.5625 27.1228 33.4894 26.9742Z" fill="black"/>
</g>
<defs>
<clipPath id="clip0_31_51">
<rect width="36.5783" height="36.5783" fill="white" transform="translate(0.349426 0.132568)"/>
</clipPath>
</defs>
</svg>
