<svg width="41" height="41" viewBox="0 0 41 41" fill="none" xmlns="http://www.w3.org/2000/svg">
<path d="M36.6646 16.8281H35.3253V16.7591H20.3615V23.4097H29.7579C28.3871 27.2812 24.7035 30.0603 20.3615 30.0603C14.8523 30.0603 10.3856 25.5936 10.3856 20.0844C10.3856 14.5752 14.8523 10.1085 20.3615 10.1085C22.9045 10.1085 25.2181 11.0678 26.9796 12.6349L31.6825 7.93208C28.713 5.1646 24.7409 3.45789 20.3615 3.45789C11.1795 3.45789 3.73495 10.9024 3.73495 20.0844C3.73495 29.2664 11.1795 36.7109 20.3615 36.7109C29.5435 36.7109 36.988 29.2664 36.988 20.0844C36.988 18.9696 36.8733 17.8814 36.6646 16.8281Z" fill="#FFC107"/>
<path d="M5.65199 12.3456L11.1146 16.3517C12.5927 12.6923 16.1724 10.1085 20.3615 10.1085C22.9045 10.1085 25.2181 11.0678 26.9796 12.6349L31.6824 7.93208C28.7129 5.1646 24.7409 3.45789 20.3615 3.45789C13.9752 3.45789 8.43693 7.06334 5.65199 12.3456Z" fill="#FF3D00"/>
<path d="M20.3615 36.7109C24.6561 36.7109 28.5583 35.0674 31.5087 32.3947L26.3628 28.0402C24.6374 29.3523 22.5291 30.062 20.3615 30.0603C16.0369 30.0603 12.3649 27.3028 10.9816 23.4546L5.55971 27.632C8.31139 33.0165 13.8996 36.7109 20.3615 36.7109Z" fill="#4CAF50"/>
<path d="M36.6646 16.828H35.3253V16.759H20.3615V23.4096H29.7579C29.1022 25.2522 27.921 26.8623 26.3603 28.041L26.3628 28.0393L31.5087 32.3938C31.1446 32.7246 36.988 28.3976 36.988 20.0843C36.988 18.9695 36.8733 17.8813 36.6646 16.828Z" fill="#1976D2"/>
</svg>
