<svg width="75" height="36" viewBox="0 0 75 36" fill="none" xmlns="http://www.w3.org/2000/svg">
<path d="M9.14494 1.304V35H0.936938V1.304H9.14494ZM36.0692 29.048H23.4932L21.4772 35H12.8852L25.0772 1.304H34.5812L46.7732 35H38.0852L36.0692 29.048ZM33.9572 22.712L29.7812 10.376L25.6532 22.712H33.9572ZM62.6758 35.336C60.2118 35.336 58.0038 34.936 56.0518 34.136C54.0998 33.336 52.5318 32.152 51.3478 30.584C50.1958 29.016 49.5878 27.128 49.5238 24.92H58.2598C58.3878 26.168 58.8198 27.128 59.5558 27.8C60.2918 28.44 61.2518 28.76 62.4358 28.76C63.6518 28.76 64.6118 28.488 65.3158 27.944C66.0198 27.368 66.3718 26.584 66.3718 25.592C66.3718 24.76 66.0838 24.072 65.5078 23.528C64.9638 22.984 64.2758 22.536 63.4438 22.184C62.6438 21.832 61.4918 21.432 59.9878 20.984C57.8118 20.312 56.0358 19.64 54.6598 18.968C53.2838 18.296 52.0998 17.304 51.1078 15.992C50.1158 14.68 49.6198 12.968 49.6198 10.856C49.6198 7.72 50.7558 5.272 53.0278 3.512C55.2998 1.72 58.2598 0.823999 61.9078 0.823999C65.6198 0.823999 68.6118 1.72 70.8838 3.512C73.1558 5.272 74.3718 7.736 74.5318 10.904H65.6518C65.5878 9.816 65.1878 8.968 64.4518 8.36C63.7158 7.72 62.7718 7.4 61.6198 7.4C60.6278 7.4 59.8278 7.672 59.2198 8.216C58.6118 8.728 58.3078 9.48 58.3078 10.472C58.3078 11.56 58.8198 12.408 59.8438 13.016C60.8678 13.624 62.4678 14.28 64.6438 14.984C66.8198 15.72 68.5798 16.424 69.9238 17.096C71.2998 17.768 72.4838 18.744 73.4758 20.024C74.4678 21.304 74.9638 22.952 74.9638 24.968C74.9638 26.888 74.4678 28.632 73.4758 30.2C72.5158 31.768 71.1078 33.016 69.2518 33.944C67.3958 34.872 65.2038 35.336 62.6758 35.336Z" fill="black"/>
</svg>
