<svg width="9" height="10" viewBox="0 0 9 10" fill="none" xmlns="http://www.w3.org/2000/svg">
<path d="M1.34985 5.97659V5.2594H2.02485V5.97659H1.34985Z" fill="#373737"/>
<path fill-rule="evenodd" clip-rule="evenodd" d="M6.3 9.5625H0.9C0.402943 9.5625 0 9.13436 0 8.60625V0.95625C0 0.428127 0.402943 0 0.9 0H6.3C6.79705 0 7.2 0.428127 7.2 0.95625V8.60625C7.2 9.13436 6.79705 9.5625 6.3 9.5625ZM3.15 2.15156C3.15 2.01953 3.25073 1.9125 3.375 1.9125H6.075C6.19927 1.9125 6.3 2.01953 6.3 2.15156C6.3 2.2836 6.19927 2.39062 6.075 2.39062H3.375C3.25073 2.39062 3.15 2.2836 3.15 2.15156ZM3.375 2.86875C3.25073 2.86875 3.15 2.97578 3.15 3.10781C3.15 3.23985 3.25073 3.34687 3.375 3.34687H6.075C6.19927 3.34687 6.3 3.23985 6.3 3.10781C6.3 2.97578 6.19927 2.86875 6.075 2.86875H3.375ZM2.6341 1.98252C2.72196 2.07588 2.72196 2.22725 2.6341 2.3206L1.575 3.44589L0.9659 2.79873C0.878033 2.70537 0.878033 2.554 0.9659 2.46065C1.05377 2.36729 1.19623 2.36729 1.2841 2.46065L1.575 2.76973L2.3159 1.98252C2.40377 1.88917 2.54624 1.88917 2.6341 1.98252ZM3.375 4.78125C3.25073 4.78125 3.15 4.88828 3.15 5.02031C3.15 5.15235 3.25073 5.25938 3.375 5.25938H6.075C6.19927 5.25938 6.3 5.15235 6.3 5.02031C6.3 4.88828 6.19927 4.78125 6.075 4.78125H3.375ZM3.15 5.97656C3.15 5.84453 3.25073 5.7375 3.375 5.7375H6.075C6.19927 5.7375 6.3 5.84453 6.3 5.97656C6.3 6.1086 6.19927 6.21563 6.075 6.21563H3.375C3.25073 6.21563 3.15 6.1086 3.15 5.97656ZM2.25 4.78125H1.125C1.00074 4.78125 0.9 4.88828 0.9 5.02031V6.21563C0.9 6.34766 1.00074 6.45469 1.125 6.45469H2.25C2.37427 6.45469 2.475 6.34766 2.475 6.21563V5.02031C2.475 4.88828 2.37427 4.78125 2.25 4.78125Z" fill="#373737"/>
<path fill-rule="evenodd" clip-rule="evenodd" d="M9.00015 8.60623L8.32515 9.56248L7.65015 8.60623V4.3031H9.00015V8.60623Z" fill="#373737"/>
<path fill-rule="evenodd" clip-rule="evenodd" d="M8.10015 2.62976H8.55015C8.79868 2.62976 9.00015 2.84382 9.00015 3.10789V4.06414H7.65015V3.10789C7.65015 2.84382 7.85161 2.62976 8.10015 2.62976Z" fill="#373737"/>
</svg>
