<svg width="124" height="131" viewBox="0 0 124 131" fill="none" xmlns="http://www.w3.org/2000/svg">
<path d="M86.5941 28.1362L84.8978 29.9571C85.1855 29.6479 85.3566 29.2208 85.3417 28.7466C85.3144 27.8087 84.5729 27.0462 83.6851 27.0462L85.3814 25.2253C86.2692 25.2253 87.0107 25.9851 87.038 26.9257C87.0529 27.3999 86.8818 27.827 86.5941 28.1362Z" fill="#7E7E7E"/>
<path d="M86.5941 28.1362L84.8978 29.9571C85.1855 29.6479 85.3566 29.2208 85.3417 28.7466C85.3144 27.8087 84.5729 27.0462 83.6851 27.0462L85.3814 25.2253C86.2692 25.2253 87.0107 25.9851 87.038 26.9257C87.0529 27.3999 86.8818 27.827 86.5941 28.1362Z" fill="#7E7E7E"/>
<path d="M86.594 28.1361L84.8977 29.957C84.615 30.2583 84.2231 30.4443 83.7842 30.4443L85.4805 28.6234C85.9195 28.6234 86.3138 28.4374 86.594 28.1361Z" fill="#353535"/>
<path d="M76.7161 37.6363L75.0197 39.4572C74.9974 38.6502 74.3576 37.9952 73.5938 37.9952L75.2901 36.1743C76.0539 36.1743 76.6937 36.8293 76.7161 37.6363Z" fill="#7E7E7E"/>
<path d="M76.7161 37.6363L75.0197 39.4572C74.9974 38.6502 74.3576 37.9952 73.5938 37.9952L75.2901 36.1743C76.0539 36.1743 76.6937 36.8293 76.7161 37.6363Z" fill="#7E7E7E"/>
<path d="M76.731 38.1131L75.0347 39.934L75.0198 39.4571L76.7161 37.6362L76.731 38.1131Z" fill="#797979"/>
<path d="M76.3492 39.1533L74.6528 40.9742C74.9008 40.7096 75.0472 40.3402 75.0348 39.9341L76.7311 38.1132C76.7435 38.5193 76.5947 38.8887 76.3492 39.1533Z" fill="#7E7E7E"/>
<path d="M76.3492 39.1532L74.6528 40.9741C74.4098 41.2335 74.0725 41.3933 73.6956 41.3933L75.3919 39.5724C75.7688 39.575 76.1061 39.4152 76.3492 39.1532Z" fill="#353535"/>
<path d="M80.8776 48.6769L79.1813 50.4978C79.1565 49.6411 78.4794 48.9468 77.6685 48.9468L79.3648 47.1259C80.1757 47.1259 80.8528 47.8202 80.8776 48.6769Z" fill="#7E7E7E"/>
<path d="M80.8776 48.6769L79.1813 50.4978C79.1565 49.6411 78.4794 48.9468 77.6685 48.9468L79.3648 47.1259C80.1757 47.1259 80.8528 47.8202 80.8776 48.6769Z" fill="#7E7E7E"/>
<path d="M80.8874 48.9731L79.1911 50.7913L79.1812 50.4979L80.8775 48.677L80.8874 48.9731Z" fill="#797979"/>
<path d="M80.4807 50.0787L78.7844 51.8996C79.0473 51.6192 79.2035 51.2262 79.1911 50.7939L80.8875 48.973C80.8999 49.4053 80.7436 49.7957 80.4807 50.0787Z" fill="#7E7E7E"/>
<path d="M80.4831 50.0786L78.7868 51.8995C78.5289 52.1746 78.1718 52.3449 77.77 52.3449L79.4663 50.524C79.8656 50.524 80.2252 50.3537 80.4831 50.0786Z" fill="#353535"/>
<path d="M85.3813 25.2253L83.685 27.0462H46.0684L47.7647 25.2253H85.3813Z" fill="#797979"/>
<path d="M47.7647 25.2253L46.0684 27.0462C45.6294 27.0462 45.2351 27.2323 44.9548 27.5336L46.6512 25.7127C46.9314 25.4114 47.3257 25.2253 47.7647 25.2253Z" fill="#7E7E7E"/>
<path d="M85.4804 28.6234L83.7841 30.4443H46.1675L47.8638 28.6234H85.4804Z" fill="#333333"/>
<path d="M47.8639 28.6235L46.1675 30.4444C45.2797 30.4444 44.5382 29.6846 44.5109 28.744C44.496 28.2698 44.6671 27.8427 44.9548 27.5335L46.6511 25.7126C46.3635 26.0218 46.1923 26.4489 46.2072 26.9231C46.2345 27.8637 46.976 28.6235 47.8639 28.6235Z" fill="#353535"/>
<path d="M41.6167 29.1213L39.9204 30.9422C40.4412 30.3815 40.7537 29.606 40.7289 28.744C40.6793 27.041 39.3327 25.6603 37.7207 25.6603C36.9221 25.6603 36.2103 25.9982 35.6995 26.5458L37.3958 24.7249C37.9067 24.1773 38.6184 23.8394 39.417 23.8394C41.029 23.8394 42.3756 25.2201 42.4252 26.9231C42.4475 27.7851 42.1375 28.5632 41.6167 29.1213Z" fill="#7E7E7E"/>
<path d="M70.1986 59.3508L68.5023 61.1717C68.4824 60.4669 67.9244 59.8957 67.2573 59.8957L68.9536 58.0748C69.6208 58.0748 70.1788 58.646 70.1986 59.3508Z" fill="#7E7E7E"/>
<path d="M70.1986 59.3508L68.5023 61.1717C68.4824 60.4669 67.9244 59.8957 67.2573 59.8957L68.9536 58.0748C69.6208 58.0748 70.1788 58.646 70.1986 59.3508Z" fill="#7E7E7E"/>
<path d="M70.1986 59.3508L68.5023 61.1717C68.4824 60.4669 67.9244 59.8957 67.2573 59.8957L68.9536 58.0748C69.6208 58.0748 70.1788 58.646 70.1986 59.3508Z" fill="#7E7E7E"/>
<path d="M70.1986 59.3508L68.5023 61.1717C68.4824 60.4669 67.9244 59.8957 67.2573 59.8957L68.9536 58.0748C69.6208 58.0748 70.1788 58.646 70.1986 59.3508Z" fill="#7E7E7E"/>
<path d="M75.2927 36.1743L73.5964 37.9952H46.1602L47.8565 36.1743H75.2927Z" fill="#797979"/>
<path d="M70.2236 60.1971L68.5272 62.018L68.5024 61.1717L70.1988 59.3508L70.2236 60.1971Z" fill="#797979"/>
<path d="M47.8565 36.1743L46.1602 37.9952C45.7832 37.9952 45.4459 38.155 45.2029 38.4144L46.8992 36.5935C47.1422 36.3368 47.4795 36.1743 47.8565 36.1743Z" fill="#7E7E7E"/>
<path d="M69.8887 61.1062L68.1924 62.9271C68.4081 62.6965 68.5371 62.3742 68.5272 62.0179L70.2235 60.197C70.2334 60.5533 70.1045 60.8756 69.8887 61.1062Z" fill="#7E7E7E"/>
<path d="M78.1173 70.4964L76.421 72.3173C76.3987 71.5051 75.7539 70.8448 74.9851 70.8448L76.6814 69.0239C77.4502 69.0239 78.0925 69.6842 78.1173 70.4964Z" fill="#7E7E7E"/>
<path d="M46.5171 37.6362L44.8208 39.4571C44.8084 39.0484 44.9572 38.6816 45.2027 38.417L46.899 36.5961C46.6535 36.8607 46.5047 37.2301 46.5171 37.6362Z" fill="#353535"/>
<path d="M78.1173 70.4964L76.421 72.3173C76.3987 71.5051 75.7539 70.8448 74.9851 70.8448L76.6814 69.0239C77.4502 69.0239 78.0925 69.6842 78.1173 70.4964Z" fill="#7E7E7E"/>
<path d="M69.8888 61.1062L68.1925 62.9271C67.9817 63.155 67.6866 63.2939 67.3542 63.2939L69.0506 61.473C69.3829 61.473 69.678 61.3341 69.8888 61.1062Z" fill="#353535"/>
<path d="M78.1299 70.9522L76.4335 72.7705L76.4211 72.3172L78.1175 70.4963L78.1299 70.9522Z" fill="#797979"/>
<path d="M75.3918 39.5751L73.6955 41.3934H46.2593L47.9556 39.5751H75.3918Z" fill="#333333"/>
<path d="M46.532 38.1131L44.8357 39.934L44.8208 39.4571L46.5171 37.6362L46.532 38.1131Z" fill="#333333"/>
<path d="M47.9556 39.5751L46.2593 41.396C45.4954 41.396 44.8581 40.741 44.8333 39.9341L46.5296 38.1132C46.5544 38.9201 47.1917 39.5751 47.9556 39.5751Z" fill="#353535"/>
<path d="M77.7454 72.0001L76.0491 73.821C76.2971 73.5538 76.4459 73.1818 76.4335 72.773L78.1298 70.9521C78.1422 71.3609 77.9934 71.7329 77.7454 72.0001Z" fill="#7E7E7E"/>
<path d="M77.7453 72.0002L76.0489 73.8211C75.8059 74.0831 75.4637 74.2456 75.0842 74.2456L76.7805 72.4247C77.16 72.4247 77.4997 72.2622 77.7453 72.0002Z" fill="#353535"/>
<path d="M41.9341 40.0728L40.2378 41.8937C40.7586 41.333 41.0711 40.5575 41.0463 39.6955C40.9967 37.9925 39.65 36.6118 38.038 36.6118C37.2395 36.6118 36.5277 36.9498 36.0168 37.4974L37.7132 35.6765C38.224 35.1289 38.9358 34.7909 39.7344 34.7909C41.3464 34.7909 42.693 36.1716 42.7426 37.8746C42.7649 38.734 42.4549 39.5121 41.9341 40.0728Z" fill="#7E7E7E"/>
<path d="M79.3647 47.1259L77.6684 48.9441H46.5642L48.2605 47.1259H79.3647Z" fill="#797979"/>
<path d="M48.2607 47.1259L46.5644 48.9468C46.1626 48.9468 45.803 49.1171 45.5476 49.3922L47.2439 47.5713C47.4994 47.2962 47.859 47.1259 48.2607 47.1259Z" fill="#7E7E7E"/>
<path d="M46.8371 48.6769L45.1408 50.4978C45.1284 50.0655 45.2847 49.6751 45.5475 49.3922L47.2439 47.5713C46.981 47.8542 46.8247 48.2446 46.8371 48.6769Z" fill="#353535"/>
<path d="M79.4641 50.524L77.7677 52.3449H46.6636L48.3599 50.524H79.4641Z" fill="#333333"/>
<path d="M46.8446 48.9731L45.1483 50.7913L45.1409 50.4979L46.8372 48.677L46.8446 48.9731Z" fill="#333333"/>
<path d="M48.3598 50.5241L46.6634 52.345C45.8525 52.345 45.1754 51.6507 45.1506 50.7939L46.847 48.973C46.8693 49.8298 47.5488 50.5241 48.3598 50.5241Z" fill="#353535"/>
<path d="M84.2032 92.5226L82.5069 94.3435C82.4821 93.4606 81.7827 92.7453 80.9495 92.7453L82.6458 90.9244C83.4815 90.9244 84.1784 91.6397 84.2032 92.5226Z" fill="#7E7E7E"/>
<path d="M84.2032 92.5226L82.5069 94.3435C82.4821 93.4606 81.7827 92.7453 80.9495 92.7453L82.6458 90.9244C83.4815 90.9244 84.1784 91.6397 84.2032 92.5226Z" fill="#7E7E7E"/>
<path d="M84.2106 92.7271L82.5143 94.5454L82.5068 94.341L84.2032 92.5227L84.2106 92.7271Z" fill="#797979"/>
<path d="M83.7915 93.8641L82.0952 95.685C82.3655 95.3942 82.5267 94.9934 82.5143 94.548L84.2107 92.7271C84.2231 93.1725 84.0619 93.5733 83.7915 93.8641Z" fill="#7E7E7E"/>
<path d="M42.2515 51.0218L40.5552 52.8427C41.076 52.282 41.3885 51.5065 41.3637 50.6445C41.3141 48.9415 39.9674 47.5608 38.3554 47.5608C37.5569 47.5608 36.8451 47.8987 36.3342 48.4463L38.0305 46.6254C38.5414 46.0778 39.2557 45.7399 40.0517 45.7399C41.6637 45.7399 43.0104 47.1206 43.06 48.8236C43.0823 49.6856 42.7723 50.4611 42.2515 51.0218Z" fill="#7E7E7E"/>
<path d="M70.8336 81.2514L69.1373 83.0723C69.1175 82.3675 68.5595 81.7964 67.8923 81.7964L69.5887 79.9755C70.2558 79.9755 70.8138 80.5466 70.8336 81.2514Z" fill="#7E7E7E"/>
<path d="M70.8336 81.2514L69.1373 83.0723C69.1175 82.3675 68.5595 81.7964 67.8923 81.7964L69.5887 79.9755C70.2558 79.9755 70.8138 80.5466 70.8336 81.2514Z" fill="#7E7E7E"/>
<path d="M70.8336 81.2514L69.1373 83.0723C69.1175 82.3675 68.5595 81.7964 67.8923 81.7964L69.5887 79.9755C70.2558 79.9755 70.8138 80.5466 70.8336 81.2514Z" fill="#7E7E7E"/>
<path d="M70.8336 81.2514L69.1373 83.0723C69.1175 82.3675 68.5595 81.7964 67.8923 81.7964L69.5887 79.9755C70.2558 79.9755 70.8138 80.5466 70.8336 81.2514Z" fill="#7E7E7E"/>
<path d="M68.9537 58.0748L67.2574 59.8957H46.6213L48.3177 58.0748H68.9537Z" fill="#797979"/>
<path d="M83.7942 93.8641L82.0978 95.685C81.8325 95.968 81.4629 96.1435 81.0513 96.1435L82.7476 94.3226C83.1593 94.3226 83.5288 94.1471 83.7942 93.8641Z" fill="#353535"/>
<path d="M70.8583 82.0976L69.162 83.9159L69.1372 83.0722L70.8335 81.2513L70.8583 82.0976Z" fill="#797979"/>
<path d="M48.3178 58.0748L46.6214 59.8957C46.2916 59.8957 45.9965 60.0346 45.7832 60.2625L47.4795 58.4416C47.6903 58.2137 47.9854 58.0748 48.3178 58.0748Z" fill="#7E7E7E"/>
<path d="M70.5235 83.0068L68.8271 84.8277C69.0429 84.5971 69.1719 84.2749 69.1619 83.9186L70.8583 82.0977C70.8682 82.4514 70.7392 82.7736 70.5235 83.0068Z" fill="#7E7E7E"/>
<path d="M47.147 59.3535L45.4507 61.1744C45.4408 60.8181 45.5698 60.4958 45.7855 60.2652L47.4818 58.4443C47.2636 58.6749 47.1371 58.9972 47.147 59.3535Z" fill="#353535"/>
<path d="M70.5236 83.0068L68.8273 84.8277C68.6165 85.0557 68.3213 85.1945 67.989 85.1945L69.6853 83.3736C70.0177 83.3736 70.3128 83.2348 70.5236 83.0068Z" fill="#353535"/>
<path d="M69.0529 61.473L67.3565 63.2939H46.7205L48.4168 61.473H69.0529Z" fill="#333333"/>
<path d="M47.1718 60.197L45.4755 62.0179L45.4507 61.1717L47.147 59.3534L47.1718 60.197Z" fill="#333333"/>
<path d="M48.4169 61.473L46.7205 63.2939C46.0534 63.2939 45.4954 62.7227 45.4756 62.0179L47.1719 60.197C47.1917 60.9018 47.7497 61.473 48.4169 61.473Z" fill="#353535"/>
<path d="M42.5691 61.9709L40.8728 63.7918C41.3936 63.2311 41.7061 62.4556 41.6813 61.5936C41.6317 59.8906 40.2851 58.5099 38.6731 58.5099C37.8745 58.5099 37.1627 58.8478 36.6519 59.3954L38.3482 57.5745C38.8591 57.0269 39.5708 56.689 40.3694 56.689C41.9814 56.689 43.328 58.0697 43.3776 59.7727C43.3999 60.6347 43.0899 61.4128 42.5691 61.9709Z" fill="#7E7E7E"/>
<path d="M76.6814 69.0239L74.9851 70.8448H47.1223L48.8186 69.0239H76.6814Z" fill="#797979"/>
<path d="M48.8185 69.0239L47.1222 70.8448C46.7428 70.8448 46.4005 71.0073 46.1575 71.2693L47.8538 69.4484C48.0993 69.1864 48.4391 69.0239 48.8185 69.0239Z" fill="#7E7E7E"/>
<path d="M47.4695 70.4989L45.7732 72.3198C45.7608 71.9085 45.9096 71.5391 46.1576 71.2718L47.8539 69.4509C47.6059 69.7155 47.4571 70.0876 47.4695 70.4989Z" fill="#353535"/>
<path d="M76.7781 72.4246L75.0818 74.2428H47.2214L48.9178 72.4246H76.7781Z" fill="#333333"/>
<path d="M47.4819 70.9522L45.7856 72.7704L45.7732 72.3172L47.4695 70.4989L47.4819 70.9522Z" fill="#333333"/>
<path d="M48.9179 72.4246L47.2216 74.2455C46.4528 74.2455 45.808 73.5852 45.7856 72.773L47.482 70.9521C47.5068 71.7643 48.1491 72.4246 48.9179 72.4246Z" fill="#353535"/>
<path d="M42.8865 72.9224L41.1902 74.7433C41.711 74.1826 42.0235 73.4071 41.9987 72.5451C41.9491 70.8421 40.6024 69.4614 38.9904 69.4614C38.1919 69.4614 37.4801 69.7994 36.9692 70.347L38.6656 68.5261C39.1764 67.9785 39.8882 67.6405 40.6868 67.6405C42.2988 67.6405 43.6454 69.0212 43.695 70.7242C43.7173 71.5836 43.4073 72.3617 42.8865 72.9224Z" fill="#7E7E7E"/>
<path d="M69.5887 79.9755L67.8924 81.7937H47.2563L48.9527 79.9755H69.5887Z" fill="#797979"/>
<path d="M48.9525 79.9755L47.2562 81.7964C46.9264 81.7964 46.6312 81.9352 46.418 82.1632L48.1143 80.3423C48.3251 80.1143 48.6202 79.9755 48.9525 79.9755Z" fill="#7E7E7E"/>
<path d="M47.7821 81.2514L46.0857 83.0723C46.0758 82.716 46.2048 82.3937 46.4205 82.1632L48.1169 80.3423C47.8986 80.5728 47.7721 80.8951 47.7821 81.2514Z" fill="#353535"/>
<path d="M69.6879 83.3737L67.9916 85.1946H47.3555L49.0518 83.3737H69.6879Z" fill="#333333"/>
<path d="M47.8068 82.0976L46.1105 83.9159L46.0857 83.0722L47.782 81.2513L47.8068 82.0976Z" fill="#333333"/>
<path d="M69.5887 79.9755C70.2558 79.9755 70.8138 80.5466 70.8336 81.2514L70.8584 82.095C70.8783 82.7998 70.355 83.371 69.6879 83.371H49.0518C48.3847 83.371 47.8267 82.7998 47.8068 82.095L47.782 81.2514C47.7622 80.5466 48.2855 79.9755 48.9526 79.9755H69.5887Z" fill="#5F5F5F"/>
<path d="M49.0516 83.3736L47.3553 85.1945C46.6882 85.1945 46.1302 84.6233 46.1104 83.9186L47.8067 82.0977C47.8265 82.8024 48.3845 83.3736 49.0516 83.3736Z" fill="#353535"/>
<path d="M43.2039 83.8714L41.5076 85.6923C42.0284 85.1316 42.3409 84.3561 42.3161 83.4941C42.2665 81.7911 40.9198 80.4104 39.3078 80.4104C38.5093 80.4104 37.7975 80.7484 37.2866 81.2959L38.9829 79.475C39.4938 78.9275 40.2056 78.5895 41.0041 78.5895C42.6161 78.5895 43.9628 79.9702 44.0124 81.6732C44.0347 82.5352 43.7247 83.3107 43.2039 83.8714Z" fill="#7E7E7E"/>
<path d="M82.6458 90.9244L80.9495 92.7453H47.8762L49.5725 90.9244H82.6458Z" fill="#797979"/>
<path d="M49.5725 90.9244L47.8761 92.7453C47.462 92.7453 47.0925 92.9209 46.8296 93.2038L48.5259 91.3829C48.7888 91.1 49.1583 90.9244 49.5725 90.9244Z" fill="#7E7E7E"/>
<path d="M48.1069 92.5226L46.4106 94.3435C46.3982 93.8981 46.5594 93.4947 46.8297 93.2038L48.526 91.3829C48.2557 91.6738 48.0945 92.0772 48.1069 92.5226Z" fill="#353535"/>
<path d="M82.7449 94.3226L81.0486 96.1435H47.9753L49.6717 94.3226H82.7449Z" fill="#333333"/>
<path d="M48.1144 92.7271L46.4181 94.5454L46.4106 94.3436L48.107 92.5227L48.1144 92.7271Z" fill="#333333"/>
<path d="M49.6717 94.3226L47.9754 96.1435C47.1396 96.1435 46.4428 95.4282 46.418 94.5453L48.1143 92.7244C48.1391 93.6073 48.836 94.3226 49.6717 94.3226Z" fill="#353535"/>
<path d="M43.5213 94.8204L41.825 96.6413C42.3458 96.0806 42.6582 95.3051 42.6334 94.4431C42.5838 92.7401 41.2372 91.3594 39.6252 91.3594C38.8266 91.3594 38.1149 91.6973 37.604 92.2449L39.3003 90.424C39.8112 89.8764 40.523 89.5385 41.3215 89.5385C42.9335 89.5385 44.2802 90.9192 44.3298 92.6222C44.3521 93.4842 44.0421 94.2623 43.5213 94.8204Z" fill="#7E7E7E"/>
<path d="M88.4093 18.9059C89.689 18.9059 90.7579 20.001 90.7976 21.353L93.0246 98.1949C93.0643 99.5469 92.0574 100.642 90.7777 100.642H37.2841C36.0045 100.642 34.9356 99.5469 34.8959 98.1949L32.6689 21.353C32.6292 20.001 33.6361 18.9059 34.9157 18.9059H88.4093ZM85.4805 28.6235C86.3683 28.6235 87.0677 27.8637 87.0404 26.9231C87.0131 25.9851 86.2716 25.2227 85.3837 25.2227H47.7671C46.8793 25.2227 46.1799 25.9825 46.2072 26.9231C46.2345 27.861 46.976 28.6235 47.8638 28.6235H85.4805ZM84.2107 92.727L84.2057 92.5226C84.1809 91.6397 83.4816 90.9244 82.6483 90.9244H49.5725C48.7368 90.9244 48.0821 91.6397 48.1069 92.5226L48.1118 92.727C48.1366 93.61 48.836 94.3252 49.6693 94.3252H82.7425C83.5808 94.3226 84.2355 93.6073 84.2107 92.727ZM46.8371 48.6769L46.8445 48.973C46.8693 49.8297 47.5489 50.524 48.3573 50.524H79.464C80.2749 50.524 80.9123 49.8297 80.8875 48.973L80.8801 48.6769C80.8553 47.8202 80.1782 47.1259 79.3673 47.1259H48.2606C47.4497 47.1259 46.8123 47.8202 46.8371 48.6769ZM47.4695 70.4963L47.4819 70.9522C47.5067 71.7644 48.149 72.4246 48.9178 72.4246H76.7781C77.5469 72.4246 78.1521 71.767 78.1297 70.9522L78.1173 70.4963C78.095 69.6841 77.4502 69.0239 76.6814 69.0239H48.8186C48.0498 69.0239 47.4447 69.6841 47.4695 70.4963ZM46.5172 37.6363L46.5321 38.1105C46.5544 38.9174 47.1942 39.5724 47.9581 39.5724H75.3918C76.1557 39.5724 76.7558 38.9201 76.7335 38.1105L76.7186 37.6363C76.6963 36.8293 76.0565 36.1743 75.2926 36.1743H47.8564C47.0925 36.1743 46.4924 36.8293 46.5172 37.6363ZM47.1446 59.3508L47.1694 60.1971C47.1893 60.9019 47.7473 61.473 48.4144 61.473H69.0505C69.7176 61.473 70.2433 60.9019 70.221 60.1971L70.1962 59.3508C70.1764 58.646 69.6184 58.0749 68.9513 58.0749H48.3152C47.6505 58.0749 47.1248 58.646 47.1446 59.3508ZM47.7795 81.2514L47.8043 82.0977C47.8241 82.8024 48.3821 83.3736 49.0493 83.3736H69.6878C70.3549 83.3736 70.8807 82.8024 70.8584 82.0977L70.8336 81.2514C70.8137 80.5466 70.2557 79.9755 69.5886 79.9755H48.9525C48.2829 79.9755 47.7597 80.5466 47.7795 81.2514ZM40.5453 62.859C42.1573 62.859 43.4246 61.4783 43.375 59.7753C43.3254 58.0723 41.9788 56.6915 40.3668 56.6915C38.7548 56.6915 37.49 58.0723 37.5371 59.7753C37.5867 61.4783 38.9333 62.859 40.5453 62.859ZM41.4977 95.7086C43.1097 95.7086 44.3769 94.3278 44.3273 92.6248C44.2777 90.9218 42.9311 89.5411 41.3191 89.5411C39.7071 89.5411 38.4423 90.9218 38.4894 92.6248C38.5365 94.3278 39.8857 95.7086 41.4977 95.7086ZM40.8628 73.808C42.4748 73.808 43.7421 72.4272 43.6925 70.7242C43.6429 69.0212 42.2962 67.6405 40.6842 67.6405C39.0722 67.6405 37.8074 69.0212 37.8545 70.7242C37.9017 72.4272 39.2508 73.808 40.8628 73.808ZM41.1802 84.757C42.7922 84.757 44.0595 83.3762 44.0099 81.6732C43.9603 79.9702 42.6137 78.5895 41.0017 78.5895C39.3897 78.5895 38.1249 79.9702 38.172 81.6732C38.2216 83.3762 39.5682 84.757 41.1802 84.757ZM39.9105 40.9584C41.5225 40.9584 42.7897 39.5777 42.7401 37.8747C42.6905 36.1717 41.3439 34.7909 39.7319 34.7909C38.1199 34.7909 36.8551 36.1717 36.9022 37.8747C36.9543 39.5777 38.2985 40.9584 39.9105 40.9584ZM39.593 30.0094C41.205 30.0094 42.4723 28.6287 42.4227 26.9257C42.3731 25.2227 41.0265 23.842 39.4145 23.842C37.8025 23.842 36.5377 25.2227 36.5848 26.9257C36.6369 28.6287 37.981 30.0094 39.593 30.0094ZM40.2279 51.9074C41.8399 51.9074 43.1072 50.5267 43.0576 48.8237C43.008 47.1207 41.6613 45.7399 40.0493 45.7399C38.4373 45.7399 37.1725 47.1207 37.2197 48.8237C37.2668 50.5267 38.6159 51.9074 40.2279 51.9074Z" fill="#E2E2E2"/>
<path d="M85.3812 25.2253C86.269 25.2253 87.0105 25.9851 87.0378 26.9257C87.0651 27.8637 86.3657 28.6261 85.4779 28.6261H47.8637C46.9759 28.6261 46.2344 27.8663 46.2071 26.9257C46.1798 25.9878 46.8767 25.2253 47.767 25.2253H85.3812Z" fill="#5F5F5F"/>
<path d="M32.6689 21.353L30.9726 23.1739C30.9527 22.49 31.1982 21.8743 31.6124 21.4289L33.3087 19.608C32.897 20.0534 32.649 20.6718 32.6689 21.353Z" fill="#7E7E7E"/>
<path d="M75.2927 36.1769C76.0565 36.1769 76.6939 36.8319 76.7187 37.6388L76.7336 38.1157C76.7559 38.9226 76.1557 39.5776 75.3919 39.5776H47.9556C47.1918 39.5776 46.5544 38.9226 46.5296 38.1157L46.5148 37.6388C46.4924 36.8319 47.0926 36.1769 47.8564 36.1769H75.2927Z" fill="#5F5F5F"/>
<path d="M79.3672 47.1259C80.1782 47.1259 80.8553 47.8202 80.8801 48.6769L80.8875 48.973C80.9123 49.8297 80.2749 50.524 79.464 50.524H48.3598C47.5488 50.524 46.8718 49.8297 46.847 48.973L46.8396 48.6769C46.8148 47.8202 47.4521 47.1259 48.2631 47.1259H79.3672Z" fill="#5F5F5F"/>
<path d="M92.3849 99.9373L90.6885 101.758C90.2818 102.193 89.7164 102.463 89.084 102.463L90.7803 100.642C91.4127 100.642 91.9781 100.375 92.3849 99.9373Z" fill="#7E7E7E"/>
<path d="M68.9537 58.0748C69.6208 58.0748 70.1788 58.646 70.1986 59.3508L70.2234 60.197C70.2433 60.9018 69.72 61.473 69.0529 61.473H48.4168C47.7497 61.473 47.1917 60.9018 47.1718 60.197L47.147 59.3508C47.1272 58.646 47.6505 58.0748 48.3176 58.0748H68.9537Z" fill="#5F5F5F"/>
<path d="M76.6814 69.0265C77.4502 69.0265 78.095 69.6867 78.1173 70.4989L78.1297 70.9522C78.1545 71.7644 77.5494 72.4246 76.7781 72.4246H48.9178C48.149 72.4246 47.5042 71.7644 47.4819 70.9522L47.4695 70.4989C47.4447 69.6867 48.0498 69.0265 48.8211 69.0265H76.6814Z" fill="#5F5F5F"/>
<path d="M82.6458 90.9244C83.4816 90.9244 84.1784 91.6397 84.2032 92.5226L84.2082 92.7244C84.233 93.6073 83.5783 94.3226 82.7425 94.3226H49.6717C48.836 94.3226 48.1391 93.6073 48.1143 92.7244L48.1093 92.5226C48.0845 91.6397 48.7392 90.9244 49.575 90.9244H82.6458Z" fill="#5F5F5F"/>
<path d="M90.7803 100.642L89.084 102.463H35.5879L37.2842 100.642H90.7803Z" fill="#797979"/>
<path d="M34.896 98.1949L33.1997 100.013L30.9727 23.1738L32.669 21.3529L34.896 98.1949Z" fill="#797979"/>
<path d="M37.2843 100.642L35.5879 102.463C34.3083 102.463 33.2394 101.368 33.1997 100.016L34.896 98.1949C34.9357 99.5469 36.0046 100.642 37.2843 100.642Z" fill="#7E7E7E"/>
<path d="M61.9998 111.31C78.2988 111.31 91.5118 111.021 91.5118 110.665C91.5118 110.309 78.2988 110.021 61.9998 110.021C45.7008 110.021 32.4878 110.309 32.4878 110.665C32.4878 111.021 45.7008 111.31 61.9998 111.31Z" fill="#E6E6E6"/>
</svg>
