<svg width="92" height="36" viewBox="0 0 92 36" fill="none" xmlns="http://www.w3.org/2000/svg">
<path d="M26.1326 12.152C26.1326 14.104 25.6846 15.896 24.7886 17.528C23.8926 19.128 22.5166 20.424 20.6606 21.416C18.8046 22.408 16.5006 22.904 13.7486 22.904H8.66056V35H0.452563V1.304H13.7486C16.4366 1.304 18.7086 1.768 20.5646 2.696C22.4206 3.624 23.8126 4.904 24.7406 6.536C25.6686 8.168 26.1326 10.04 26.1326 12.152ZM13.1246 16.376C14.6926 16.376 15.8606 16.008 16.6286 15.272C17.3966 14.536 17.7806 13.496 17.7806 12.152C17.7806 10.808 17.3966 9.768 16.6286 9.032C15.8606 8.296 14.6926 7.928 13.1246 7.928H8.66056V16.376H13.1246ZM29.0137 18.104C29.0137 14.776 29.7337 11.816 31.1737 9.224C32.6137 6.6 34.6137 4.568 37.1737 3.128C39.7657 1.656 42.6937 0.919998 45.9577 0.919998C49.9577 0.919998 53.3817 1.976 56.2297 4.088C59.0777 6.2 60.9817 9.08 61.9417 12.728H52.9177C52.2457 11.32 51.2857 10.248 50.0377 9.512C48.8217 8.776 47.4297 8.408 45.8617 8.408C43.3337 8.408 41.2857 9.288 39.7177 11.048C38.1497 12.808 37.3657 15.16 37.3657 18.104C37.3657 21.048 38.1497 23.4 39.7177 25.16C41.2857 26.92 43.3337 27.8 45.8617 27.8C47.4297 27.8 48.8217 27.432 50.0377 26.696C51.2857 25.96 52.2457 24.888 52.9177 23.48H61.9417C60.9817 27.128 59.0777 30.008 56.2297 32.12C53.3817 34.2 49.9577 35.24 45.9577 35.24C42.6937 35.24 39.7657 34.52 37.1737 33.08C34.6137 31.608 32.6137 29.576 31.1737 26.984C29.7337 24.392 29.0137 21.432 29.0137 18.104ZM79.1602 35.336C76.6962 35.336 74.4882 34.936 72.5362 34.136C70.5842 33.336 69.0162 32.152 67.8322 30.584C66.6802 29.016 66.0722 27.128 66.0082 24.92H74.7442C74.8722 26.168 75.3042 27.128 76.0402 27.8C76.7762 28.44 77.7362 28.76 78.9202 28.76C80.1362 28.76 81.0962 28.488 81.8002 27.944C82.5042 27.368 82.8562 26.584 82.8562 25.592C82.8562 24.76 82.5682 24.072 81.9922 23.528C81.4482 22.984 80.7602 22.536 79.9282 22.184C79.1282 21.832 77.9762 21.432 76.4722 20.984C74.2962 20.312 72.5202 19.64 71.1442 18.968C69.7682 18.296 68.5842 17.304 67.5922 15.992C66.6002 14.68 66.1042 12.968 66.1042 10.856C66.1042 7.72 67.2402 5.272 69.5122 3.512C71.7842 1.72 74.7442 0.823999 78.3922 0.823999C82.1042 0.823999 85.0962 1.72 87.3682 3.512C89.6402 5.272 90.8562 7.736 91.0162 10.904H82.1362C82.0722 9.816 81.6722 8.968 80.9362 8.36C80.2002 7.72 79.2562 7.4 78.1042 7.4C77.1122 7.4 76.3122 7.672 75.7042 8.216C75.0962 8.728 74.7922 9.48 74.7922 10.472C74.7922 11.56 75.3042 12.408 76.3282 13.016C77.3522 13.624 78.9522 14.28 81.1282 14.984C83.3042 15.72 85.0642 16.424 86.4082 17.096C87.7842 17.768 88.9682 18.744 89.9602 20.024C90.9522 21.304 91.4482 22.952 91.4482 24.968C91.4482 26.888 90.9522 28.632 89.9602 30.2C89.0002 31.768 87.5922 33.016 85.7362 33.944C83.8802 34.872 81.6882 35.336 79.1602 35.336Z" fill="black"/>
</svg>
