<svg width="81" height="61" viewBox="0 0 81 61" fill="none" xmlns="http://www.w3.org/2000/svg">
<path d="M13.6406 4.375C18.9531 1.65625 24.5312 0.296875 30.375 0.296875C35.5938 0.296875 39.7031 1.67188 42.7031 4.42188C45.7344 7.17188 47.25 10.7812 47.25 15.25C47.25 20.1562 45.3281 24.1094 41.4844 27.1094C42.7031 27.5781 44.4062 27.8125 46.5938 27.8125C48.875 27.8125 51 27.3438 52.9688 26.4062C54.9688 25.4688 56.9688 23.9688 58.9688 21.9062V11.875H52.875V1.28125H80.9062V11.875H71.8594V61H58.9688V34.2344C56.125 35.8906 52.4531 36.8594 47.9531 37.1406C48.2656 38.4531 48.4219 39.6406 48.4219 40.7031C48.4219 45.3594 46.9062 48.9531 43.875 51.4844C40.875 53.9844 36.5938 55.2344 31.0312 55.2344C26.875 55.2344 23.1094 54.4688 19.7344 52.9375C16.3906 51.4062 13.0938 48.6562 9.84375 44.6875C6.59375 40.6875 3.40625 34.9844 0.28125 27.5781L11.3438 23.3594C14.0625 30.4219 16.9375 35.7031 19.9688 39.2031C23.0312 42.6719 26.3906 44.4062 30.0469 44.4062C33.7969 44.4062 35.6719 42.5625 35.6719 38.875C35.6719 35.8438 34.6406 33.2188 32.5781 31C30.4219 31.4688 28.0156 31.7344 25.3594 31.7969L24.8438 21.6719C28.1875 21.4844 30.6406 20.9375 32.2031 20.0312C33.7656 19.125 34.5469 17.625 34.5469 15.5312C34.5469 12.4062 32.4531 10.8438 28.2656 10.8438C25.0156 10.8438 21.3281 11.8906 17.2031 13.9844L13.6406 4.375Z" fill="black"/>
</svg>
